<?xml version="1.0" standalone="no"?>
<!DOCTYPE svg PUBLIC "-//W3C//DTD SVG 20010904//EN"
 "http://www.w3.org/TR/2001/REC-SVG-20010904/DTD/svg10.dtd">
<svg version="1.0" xmlns="http://www.w3.org/2000/svg"
 width="512.000000pt" height="512.000000pt" viewBox="0 0 512.000000 512.000000"
 preserveAspectRatio="xMidYMid meet">

<g transform="translate(0.000000,512.000000) scale(0.100000,-0.100000)"
fill="#000000" stroke="none">
<path d="M2085 4793 c-788 -67 -1450 -496 -1823 -1183 -189 -349 -285 -804
-254 -1207 42 -549 266 -1038 652 -1423 372 -373 856 -601 1380 -649 148 -14
890 -14 1040 0 450 41 889 224 1241 518 541 452 845 1168 791 1869 -85 1103
-938 1971 -2037 2072 -99 9 -891 12 -990 3z m346 -163 c468 -46 899 -242 1234
-561 344 -328 557 -735 632 -1209 22 -143 22 -457 0 -598 -99 -620 -439 -1139
-963 -1468 -599 -375 -1380 -413 -2009 -98 -235 118 -403 241 -586 431 -274
285 -457 633 -533 1015 -169 839 179 1679 891 2151 251 167 587 294 864 326
51 6 108 13 124 15 67 7 249 5 346 -4z m858 -36 c69 -14 182 -44 251 -67 l125
-42 -131 -3 -130 -3 -135 71 c-74 38 -128 70 -120 70 7 0 70 -11 140 -26z
m772 -325 c108 -74 192 -145 299 -253 l95 -96 -220 0 -220 0 -25 37 c-29 43
-254 273 -319 327 l-45 36 180 0 180 0 75 -51z m570 -597 c56 -86 159 -282
159 -302 0 -6 -80 -10 -229 -10 l-228 0 -18 48 c-23 62 -98 212 -141 283 -19
31 -34 59 -34 63 0 3 98 6 218 6 l217 0 56 -88z m245 -529 c22 -77 64 -281 64
-315 l0 -28 -235 0 -235 0 -4 23 c-2 12 -10 56 -16 97 -6 41 -23 119 -36 173
-13 54 -24 100 -24 102 0 3 105 5 234 5 l235 0 17 -57z m81 -520 c7 -18 -13
-342 -23 -367 -5 -14 -36 -16 -241 -16 l-235 0 6 28 c4 15 9 105 13 200 l6
172 234 0 c208 0 234 -2 240 -17z m-62 -575 c-10 -50 -71 -229 -102 -302 l-28
-66 -232 0 -233 0 21 53 c36 89 48 127 75 226 14 53 27 102 29 109 3 9 60 12
240 12 l237 0 -7 -32z m-225 -536 c0 -17 -148 -224 -218 -306 l-73 -86 -210 0
-211 0 50 63 c57 72 156 220 192 290 l25 47 222 0 c123 0 223 -4 223 -8z
m-495 -578 c-16 -13 -66 -49 -110 -80 l-80 -54 -176 2 -175 3 85 77 86 77 200
0 200 0 -30 -25z m-543 -309 c-96 -42 -421 -126 -483 -125 -8 0 45 31 116 69
l130 69 135 1 c125 0 133 -1 102 -14z"/>
<path d="M2000 4545 c-375 -46 -727 -196 -1020 -432 -89 -72 -257 -243 -321
-328 -513 -671 -559 -1566 -118 -2277 543 -877 1672 -1199 2587 -739 215 108
379 229 547 402 157 162 258 305 359 506 457 915 133 2040 -745 2584 -382 237
-844 339 -1289 284z m400 -156 c660 -61 1224 -455 1506 -1053 170 -362 216
-782 129 -1172 -37 -163 -74 -266 -156 -429 -177 -356 -460 -639 -814 -815
-163 -81 -268 -118 -426 -154 -474 -105 -956 -23 -1373 236 -492 305 -806 826
-857 1420 -70 815 446 1601 1227 1871 254 88 507 120 764 96z"/>
<path d="M2090 4074 c-200 -26 -443 -98 -476 -142 -16 -20 -18 -66 -4 -91 5
-10 23 -24 39 -31 26 -10 37 -10 73 5 186 75 317 100 523 99 147 0 185 -4 281
-26 61 -15 158 -45 217 -67 421 -165 731 -536 828 -991 32 -149 32 -391 0
-540 -117 -548 -533 -957 -1086 -1066 -121 -24 -387 -24 -497 0 -283 61 -527
195 -720 394 -193 199 -310 427 -364 707 -24 122 -23 347 1 475 46 243 163
486 316 654 78 87 85 112 40 157 -48 47 -75 40 -152 -40 -171 -178 -310 -458
-365 -736 -25 -125 -25 -414 -1 -540 66 -334 212 -604 453 -835 205 -197 454
-327 751 -392 131 -28 421 -31 560 -5 202 37 408 122 584 238 126 84 324 282
408 408 116 176 201 383 238 584 24 126 24 408 0 534 -37 201 -121 408 -238
584 -83 126 -281 322 -409 408 -176 117 -380 200 -575 236 -88 16 -355 28
-425 19z"/>
<path d="M1373 3808 c-28 -14 -46 -58 -37 -92 14 -56 92 -76 132 -33 28 29 29
87 4 110 -24 22 -71 29 -99 15z"/>
<path d="M2025 3735 c-23 -22 -25 -32 -25 -117 l0 -94 -69 -10 c-191 -30 -347
-172 -396 -359 -21 -82 -21 -388 0 -470 46 -175 191 -317 363 -354 32 -6 158
-11 317 -11 l265 0 0 -120 0 -120 -240 0 c-210 0 -240 2 -240 15 0 9 -11 27
-25 40 -24 25 -26 25 -215 25 -189 0 -191 0 -215 -25 -60 -59 -8 -256 98 -372
86 -93 185 -146 302 -159 l55 -7 0 -94 c0 -86 2 -96 25 -118 32 -33 78 -33
110 0 23 22 25 32 25 120 l0 95 80 0 80 0 0 -95 c0 -88 2 -98 25 -120 32 -33
78 -33 110 0 23 22 25 32 25 117 l0 93 75 12 c108 18 178 54 261 137 75 76
113 143 133 234 14 69 14 375 0 444 -37 172 -179 317 -354 363 -46 12 -119 15
-327 15 l-268 0 0 120 0 120 240 0 c210 0 240 -2 240 -15 0 -9 11 -27 25 -40
24 -25 26 -25 215 -25 189 0 191 0 215 25 30 29 33 81 10 170 -24 90 -71 169
-141 234 -76 71 -149 108 -249 124 l-75 12 0 93 c0 85 -2 95 -25 117 -15 16
-36 25 -55 25 -19 0 -40 -9 -55 -25 -23 -22 -25 -32 -25 -120 l0 -95 -80 0
-80 0 0 95 c0 88 -2 98 -25 120 -15 16 -36 25 -55 25 -19 0 -40 -9 -55 -25z
m585 -406 c77 -36 112 -68 148 -137 18 -33 32 -63 32 -66 0 -3 -39 -6 -86 -6
-82 0 -86 1 -110 30 -40 47 -73 52 -376 48 -261 -3 -278 -4 -304 -24 -67 -49
-69 -58 -69 -254 0 -196 2 -205 69 -254 26 -20 44 -21 339 -26 298 -5 314 -6
357 -28 75 -37 117 -78 152 -150 l33 -67 0 -195 c0 -190 -1 -197 -26 -251 -33
-71 -87 -125 -158 -158 l-56 -26 -320 0 -320 0 -52 27 c-68 36 -120 89 -149
152 l-24 51 81 3 c80 3 81 2 119 -32 21 -19 54 -38 72 -41 18 -3 155 -5 305
-3 256 3 273 4 299 24 67 49 69 58 69 254 0 196 -2 205 -69 254 -26 20 -44 21
-334 26 -306 5 -307 5 -363 31 -69 33 -127 88 -159 154 -23 47 -25 63 -28 234
-3 150 -1 192 13 234 33 101 105 175 205 211 38 13 92 15 350 13 l305 -2 55
-26z"/>
</g>
</svg>
